PathFileType	4	(X/Y/Z)	C:/Users/opensim2020/Desktop/walking_exp_matlab/subject02_walking05_straight_01.trc	
DataRate	CameraRate	NumFrames	NumMarkers	Units	OrigDataRate	OrigDataStartFrame	OrigNumFrames	
100.00	100.00	5	42	mm	100.00	745	190	
Frame#	Time	LFHD			RFHD			LBHD			RBHD			C7			T10			CLAV			STRN			RBAK			LSHO			LUPA			LELB			LFRM			LWRA			LWRB			LFIN			RSHO			RUPA			RELB			RFRM			RWRA			RWRB			RFIN			LASI			RASI			LPSI			RPSI			LTHI			LKNE			LTIB			LANK			LHEE			LTOE			RTHI			RKNE			RTIB			RANK			RHEE			RTOE			*39			*40			*41			
		X1	Y1	Z1	X2	Y2	Z2	X3	Y3	Z3	X4	Y4	Z4	X5	Y5	Z5	X6	Y6	Z6	X7	Y7	Z7	X8	Y8	Z8	X9	Y9	Z9	X10	Y10	Z10	X11	Y11	Z11	X12	Y12	Z12	X13	Y13	Z13	X14	Y14	Z14	X15	Y15	Z15	X16	Y16	Z16	X17	Y17	Z17	X18	Y18	Z18	X19	Y19	Z19	X20	Y20	Z20	X21	Y21	Z21	X22	Y22	Z22	X23	Y23	Z23	X24	Y24	Z24	X25	Y25	Z25	X26	Y26	Z26	X27	Y27	Z27	X28	Y28	Z28	X29	Y29	Z29	X30	Y30	Z30	X31	Y31	Z31	X32	Y32	Z32	X33	Y33	Z33	X34	Y34	Z34	X35	Y35	Z35	X36	Y36	Z36	X37	Y37	Z37	X38	Y38	Z38	X39	Y39	Z39	X40	Y40	Z40	X41	Y41	Z41	X42	Y42	Z42	

96	0.950	-1119.61584	-271.45770	1717.00525	-979.63873	-290.68552	1688.52808	-1151.44763	-398.28543	1640.97644	-1014.38989	-429.23734	1610.73242	-1088.46069	-462.46167	1501.05688	-1081.07300	-526.30493	1227.23901	-1097.54016	-326.63272	1425.73694	-1096.10669	-282.96176	1251.65076	-1029.93323	-530.58826	1328.23145	-1266.76184	-383.60608	1477.98718	-1362.76404	-354.59894	1288.23743	-1390.64160	-312.66638	1154.01294	-1403.97534	-238.83968	1043.05432	-1372.77856	-128.02243	966.04749	-1404.65686	-168.62280	942.71082	-1412.76062	-117.93119	902.09259	-900.97852	-391.06274	1456.46191	-823.84381	-449.85229	1272.90894	-802.70959	-457.83505	1127.36133	-778.47144	-440.15057	1008.57788	-787.84302	-395.37201	880.10284	-764.38171	-447.57034	879.09528	-754.75659	-414.51102	815.09271	-1236.35034	-316.71448	958.91913	-979.67212	-279.98346	955.82678	-1122.04077	-512.32434	1005.16156	-1008.89337	-503.10574	1004.82080	-1270.05334	-442.96719	658.31964	-1237.76526	-517.68066	469.15695	-1237.27368	-633.61658	312.32520	-1203.60510	-705.46918	98.84151	-1152.83325	-748.64539	81.96562	-1213.03442	-562.44342	29.58674	-887.56195	-281.46030	660.73743	-928.66125	-217.65904	463.63757	-917.47852	-198.58507	276.97427	-945.57800	-150.20470	88.14695	-1002.28925	-162.36417	26.85730	-930.98401	11.22703	76.21280	-1039.69189	-386.07880	1774.30603						 
97	0.960	-1116.99561	-261.58328	1716.63074	-977.03979	-280.82932	1687.93311	-1149.05371	-388.16055	1640.34741	-1012.60376	-419.37140	1609.81995	-1085.98669	-452.25839	1500.18738	-1078.46399	-515.43768	1226.28711	-1095.33899	-316.14142	1425.10938	-1094.11914	-272.10199	1251.18262	-1027.45654	-519.77405	1327.22729	-1264.33350	-373.63562	1477.37329	-1359.99133	-345.24704	1287.81665	-1388.29810	-303.23853	1153.76440	-1400.92334	-228.62788	1043.29553	-1369.58801	-116.65921	967.57306	-1400.99634	-157.26653	943.55566	-1408.88196	-106.51698	903.51282	-898.59424	-380.14661	1455.51379	-821.69794	-439.97165	1272.31226	-801.00336	-448.29904	1126.80884	-776.78284	-432.29520	1007.91492	-785.90802	-388.63092	878.96783	-762.67926	-440.83835	878.48584	-753.00482	-408.42862	814.06268	-1234.52112	-305.68021	958.32428	-977.74567	-268.41431	955.58453	-1119.24048	-500.97995	1004.19623	-1006.29272	-491.52893	1004.01965	-1268.87927	-433.35352	658.02869	-1237.27539	-508.98511	469.53992	-1237.06494	-627.71411	314.86359	-1204.16553	-703.55945	102.31761	-1153.63635	-746.84106	87.01772	-1213.29382	-562.30151	29.52900	-886.38611	-268.93857	660.40808	-927.08014	-207.95201	462.25049	-919.41962	-192.63493	274.70630	-946.83221	-146.33054	87.10291	-1002.60913	-159.77501	28.92353	-931.26947	16.13968	68.61414	-1037.13794	-376.44427	1773.49976						 
98	0.970	-1114.35889	-251.58690	1716.86597	-974.31268	-270.55371	1688.06287	-1146.51257	-377.78098	1640.07129	-1009.97986	-408.80276	1609.09961	-1083.29993	-442.14978	1499.58081	-1075.80115	-504.73434	1226.23486	-1093.12708	-305.55237	1424.76868	-1091.96216	-261.34473	1251.13391	-1025.06360	-508.23099	1326.72754	-1261.94885	-363.66891	1477.01917	-1357.67505	-335.82669	1287.80103	-1385.56641	-294.24139	1153.38782	-1397.89136	-218.53535	1043.29712	-1366.24133	-105.99120	968.92358	-1397.40137	-146.32932	944.36456	-1404.99390	-94.91056	904.53394	-896.32452	-369.56354	1454.77808	-819.39105	-429.78986	1271.78430	-799.33331	-438.68210	1126.11865	-775.00726	-423.70001	1007.39630	-783.99933	-381.56284	877.82770	-760.88171	-433.70914	878.01868	-751.26233	-402.13605	813.10596	-1232.49182	-294.10986	957.78400	-975.64130	-257.22357	955.57257	-1116.46570	-489.76563	1003.38666	-1003.67291	-479.95078	1003.48364	-1267.92810	-423.39117	657.90417	-1236.74255	-499.95779	470.24091	-1236.64600	-621.43127	317.75183	-1205.00952	-701.15454	106.48167	-1154.44653	-744.33075	92.20078	-1213.36646	-561.86133	29.55291	-884.95575	-257.44144	661.13873	-924.92987	-198.94312	462.50073	-920.13141	-184.60481	274.62048	-944.23407	-138.72652	88.13715	-1000.78833	-156.01802	31.52857	-930.01721	23.04621	63.26429	-1034.64478	-366.76068	1773.23755						 
99	0.980	-1111.49768	-241.51004	1717.50745	-971.56879	-260.46683	1688.20630	-1143.87817	-367.41769	1640.36499	-1007.06744	-398.12164	1609.17200	-1080.69031	-431.98236	1499.49475	-1073.34119	-494.08023	1226.31238	-1090.71753	-295.11093	1424.97058	-1089.68738	-250.63243	1251.40051	-1022.59351	-497.98236	1327.00464	-1259.58215	-353.82111	1477.18555	-1354.95886	-326.73819	1287.56165	-1383.15369	-285.53040	1152.96118	-1394.72961	-208.98131	1043.34241	-1362.66333	-95.75541	970.18896	-1393.61475	-135.83928	945.03864	-1400.90784	-84.08621	905.53229	-893.55524	-358.56619	1454.38928	-817.11383	-419.84186	1271.45190	-797.51874	-428.93179	1125.59985	-773.23193	-415.29596	1006.87762	-782.21997	-374.15317	876.89301	-759.54962	-426.45972	877.43524	-749.59021	-395.83450	812.41248	-1230.18433	-282.41302	957.31555	-973.23224	-246.07660	955.93604	-1114.06750	-478.41156	1002.78668	-1001.22192	-468.27158	1003.72546	-1266.64355	-412.87378	658.00732	-1236.30762	-490.30859	471.13574	-1236.16907	-614.64795	321.03192	-1205.73120	-698.41846	110.98506	-1155.16345	-741.44006	98.20280	-1213.66809	-561.53284	29.64701	-883.10101	-246.72173	662.49066	-922.32495	-188.60223	463.90079	-915.10901	-174.64032	276.66669	-941.32355	-132.53363	87.93565	-998.62683	-153.08450	33.50546	-930.26532	28.23947	58.91505	-1031.61584	-356.94592	1773.23450						 
100	0.990	-1108.60852	-231.36768	1718.36169	-968.76166	-250.30432	1688.88281	-1141.10437	-357.09448	1640.94983	-1004.47980	-387.84723	1609.50964	-1077.96631	-421.38788	1499.90625	-1071.16223	-483.40826	1226.40637	-1088.23792	-284.74802	1425.52332	-1087.22717	-239.83966	1251.96655	-1019.89215	-487.47485	1327.09241	-1257.23279	-343.84436	1477.62451	-1352.42285	-317.61664	1287.67615	-1380.64197	-277.17447	1152.60022	-1391.33521	-199.94351	1043.35693	-1359.03381	-85.99570	971.34070	-1389.85278	-125.87053	945.64191	-1396.73657	-73.78569	906.47357	-890.81189	-347.67130	1454.18665	-814.81281	-409.35355	1270.99744	-795.58759	-419.07825	1125.45630	-771.39661	-405.89401	1006.41803	-780.47119	-366.32767	876.24811	-757.87036	-418.79556	877.24103	-747.84595	-388.47784	811.98987	-1227.59375	-270.43512	957.05286	-970.60040	-234.71490	956.77240	-1112.00635	-466.75525	1002.73816	-998.89429	-456.79565	1004.76984	-1265.17102	-402.05020	658.45551	-1235.73767	-479.86465	472.11935	-1235.67163	-607.17651	324.70416	-1206.15808	-695.06964	116.33685	-1155.45264	-737.70264	104.50806	-1214.09302	-561.35803	29.77421	-880.87000	-236.39424	664.00763	-919.83435	-176.48378	466.43466	-910.95947	-163.25554	279.23431	-938.95337	-128.25914	88.06571	-996.65326	-151.30737	34.61916	-931.01331	31.54890	52.64006	-1028.83936	-347.23721	1773.53174						 
